<?xml version="1.0" encoding="UTF-8" standalone="no"?>
<svg
   width="38px"
   height="38px"
   viewBox="0 0 38 38"
   version="1.1"
   id="svg34"
   sodipodi:docname="close_focused_normal.svg"
   inkscape:version="1.2.1 (9c6d41e410, 2022-07-14, custom)"
   xmlns:inkscape="http://www.inkscape.org/namespaces/inkscape"
   xmlns:sodipodi="http://sodipodi.sourceforge.net/DTD/sodipodi-0.dtd"
   xmlns="http://www.w3.org/2000/svg"
   xmlns:svg="http://www.w3.org/2000/svg">
  <sodipodi:namedview
     id="namedview36"
     pagecolor="#ffffff"
     bordercolor="#000000"
     borderopacity="0.25"
     inkscape:showpageshadow="2"
     inkscape:pageopacity="0.0"
     inkscape:pagecheckerboard="0"
     inkscape:deskcolor="#d1d1d1"
     showgrid="false"
     inkscape:zoom="12.421053"
     inkscape:cx="7.8898305"
     inkscape:cy="16.866525"
     inkscape:window-width="1876"
     inkscape:window-height="1027"
     inkscape:window-x="44"
     inkscape:window-y="24"
     inkscape:window-maximized="1"
     inkscape:current-layer="surface1" />
  <defs
     id="defs17">
    <linearGradient
       id="linear0"
       gradientUnits="userSpaceOnUse"
       x1="13"
       y1="4"
       x2="13"
       y2="19"
       gradientTransform="matrix(2.533333,0,0,2.533333,-12.666667,-10.133301)">
      <stop
         offset="0"
         style="stop-color:rgb(74.509805%,74.509805%,74.509805%);stop-opacity:1;"
         id="stop2" />
      <stop
         offset="1"
         style="stop-color:rgb(90.196079%,90.196079%,90.196079%);stop-opacity:1;"
         id="stop4" />
    </linearGradient>
    <linearGradient
       id="linear1"
       gradientUnits="userSpaceOnUse"
       x1="14.470589"
       y1="16.999983"
       x2="14.470589"
       y2="5.999982"
       gradientTransform="matrix(3.4,0,0,3.090909,-25.2,-16.54541)">
      <stop
         offset="0"
         style="stop-color:rgb(0%,0%,0%);stop-opacity:0.227451;"
         id="stop7" />
      <stop
         offset="1"
         style="stop-color:rgb(0%,0%,0%);stop-opacity:0;"
         id="stop9" />
    </linearGradient>
    <linearGradient
       id="linear2"
       gradientUnits="userSpaceOnUse"
       x1="13.333333"
       y1="5.999987"
       x2="13.333333"
       y2="16.999987"
       gradientTransform="matrix(3,0,0,2.727273,-19.999999,-12.363525)">
      <stop
         offset="0"
         style="stop-color:#d02222;stop-opacity:1;"
         id="stop12" />
      <stop
         offset="1"
         style="stop-color:#7a1d1d;stop-opacity:1;"
         id="stop14" />
    </linearGradient>
  </defs>
  <g
     id="surface1">
    <path
       style=" stroke:none;fill-rule:nonzero;fill:url(#linear0);"
       d="M 38 19 C 38 29.492188 29.492188 38 19 38 C 8.507812 38 0 29.492188 0 19 C 0 8.507812 8.507812 0 19 0 C 29.492188 0 38 8.507812 38 19 Z M 38 19 "
       id="path19" />
    <path
       style=" stroke:none;fill-rule:nonzero;fill:url(#linear1);"
       d="M 36 19 C 36 28.390625 28.390625 36 19 36 C 9.609375 36 2 28.390625 2 19 C 2 9.609375 9.609375 2 19 2 C 28.390625 2 36 9.609375 36 19 Z M 36 19 "
       id="path21" />
    <path
       style=" stroke:none;fill-rule:nonzero;fill:url(#linear2);"
       d="M 34 19 C 34 27.285156 27.285156 34 19 34 C 10.714844 34 4 27.285156 4 19 C 4 10.714844 10.714844 4 19 4 C 27.285156 4 34 10.714844 34 19 Z M 34 19 "
       id="path23" />
    <path
       style="fill:#4c4c4c;fill-opacity:1;fill-rule:nonzero;stroke:none"
       d="M 12,23.25 24.25,11 26,12.75 13.75,25 Z m 0,0"
       id="path29" />
    <path
       style="fill:#4c4c4c;fill-opacity:1;fill-rule:nonzero;stroke:none"
       d="M 26,23.25 13.75,11 12,12.75 24.25,25 Z m 0,0"
       id="path31" />
    <path
       style="fill:#ffffff;fill-opacity:1;fill-rule:nonzero;stroke:none"
       d="M 26,25.25 13.75,13 12,14.75 24.25,27 Z m 0,0"
       id="path27" />
    <path
       style="fill:#ffffff;fill-opacity:1;fill-rule:nonzero;stroke:none"
       d="M 12,25.25 24.25,13 26,14.75 13.75,27 Z m 0,0"
       id="path25" />
  </g>
</svg>
